<?xml version="1.0" standalone="no"?>
<!DOCTYPE svg PUBLIC "-//W3C//DTD SVG 20010904//EN"
 "http://www.w3.org/TR/2001/REC-SVG-20010904/DTD/svg10.dtd">
<svg version="1.0" xmlns="http://www.w3.org/2000/svg"
 width="1418.000000pt" height="1418.000000pt" viewBox="0 0 1418.000000 1418.000000"
 preserveAspectRatio="xMidYMid meet">
<metadata>
Created by potrace 1.11, written by Peter Selinger 2001-2013
</metadata>
<g transform="translate(0.000000,1418.000000) scale(0.100000,-0.100000)"
fill="#000000" stroke="none">
<path d="M11118 14175 c-2 -1 -38 -5 -81 -9 -42 -4 -101 -11 -130 -17 -28 -5
-65 -12 -82 -15 -124 -21 -323 -89 -476 -163 -212 -101 -377 -219 -555 -396
-170 -169 -295 -341 -389 -535 -26 -52 -52 -106 -59 -120 -45 -86 -115 -337
-140 -500 -19 -123 -26 -449 -11 -525 3 -16 10 -61 15 -100 5 -38 23 -123 39
-187 178 -689 692 -1235 1366 -1451 104 -33 225 -63 290 -71 17 -2 46 -7 65
-10 103 -16 324 -23 436 -12 74 7 169 18 184 21 142 30 193 43 290 75 63 20
138 48 165 60 120 54 164 76 224 112 34 21 65 38 68 38 5 0 21 12 143 102 420
311 714 797 798 1318 34 210 33 464 -2 665 -3 17 -8 45 -11 64 -38 220 -167
533 -303 735 -41 61 -76 110 -82 116 -3 3 -27 32 -54 65 -131 161 -358 354
-541 460 -59 34 -241 125 -251 125 -3 0 -20 7 -37 14 -33 15 -210 74 -244 81
-10 2 -38 8 -63 13 -25 6 -65 14 -90 17 -24 4 -47 8 -50 10 -19 11 -421 30
-432 20z"/>
<path d="M5955 11047 c-86 -22 -147 -58 -215 -126 l-65 -66 -2394 -5118
c-1316 -2815 -2400 -5141 -2408 -5169 -11 -35 -14 -81 -11 -147 3 -82 8 -106
35 -163 56 -119 149 -200 274 -239 58 -18 117 -19 1445 -19 761 0 1384 2 1384
3 0 2 -9 30 -20 62 -39 113 -54 222 -54 385 1 173 22 299 73 438 16 42 819
1767 1786 3832 967 2065 1758 3762 1757 3770 -1 8 -248 543 -551 1188 -579
1237 -575 1230 -674 1298 -100 69 -252 99 -362 71z"/>
<path d="M8938 9015 c-114 -31 -229 -120 -276 -211 -79 -156 -3821 -8164
-3840 -8219 -21 -60 -24 -82 -19 -160 3 -59 12 -110 27 -146 48 -124 166 -230
292 -263 58 -16 354 -17 3959 -14 l3895 3 75 37 c134 66 224 183 250 323 12
67 6 164 -15 222 -13 38 -3778 8089 -3836 8202 -91 181 -316 280 -512 226z"/>
</g>
</svg>
